HIERARCHY
ROOT Hips
{
 OFFSET 0.000000 0.000000 0.000000
 CHANNELS 6 Xposition Yposition Zposition Yrotation Xrotation Zrotation
 JOINT Chest
 {
  OFFSET 0.000000 9.588913 -0.003946
  CHANNELS 3 Yrotation Xrotation Zrotation
  JOINT Chest2
  {
   OFFSET 0.000000 9.541882 0.008053
   CHANNELS 3 Yrotation Xrotation Zrotation
   JOINT Chest3
   {
    OFFSET 0.000000 9.501360 0.000000
    CHANNELS 3 Yrotation Xrotation Zrotation
    JOINT Chest4
    {
     OFFSET 0.000000 9.491660 0.000000
     CHANNELS 3 Yrotation Xrotation Zrotation
     JOINT Neck
     {
      OFFSET 0.000000 14.331917 0.000000
      CHANNELS 3 Yrotation Xrotation Zrotation
      JOINT Head
      {
       OFFSET 0.000000 8.884799 0.017034
       CHANNELS 3 Yrotation Xrotation Zrotation
       End Site
       {
        OFFSET 0.000000 16.896195 0.008993
       }
      }
     }
     JOINT RightCollar
     {
      OFFSET -2.923010 9.499495 0.000000
      CHANNELS 3 Yrotation Xrotation Zrotation
      JOINT RightShoulder
      {
       OFFSET -13.795216 0.000000 0.000000
       CHANNELS 3 Yrotation Xrotation Zrotation
       JOINT RightElbow
       {
        OFFSET -30.272209 0.000000 0.000000
        CHANNELS 3 Yrotation Xrotation Zrotation
        JOINT RightWrist
        {
         OFFSET -24.478199 0.000000 0.000000
         CHANNELS 3 Yrotation Xrotation Zrotation
         End Site
         {
          OFFSET -18.090752 0.000000 0.000000
         }
        }
       }
      }
     }
     JOINT LeftCollar
     {
      OFFSET 2.923010 9.499495 0.000000
      CHANNELS 3 Yrotation Xrotation Zrotation
      JOINT LeftShoulder
      {
       OFFSET 13.795216 0.000000 0.000000
       CHANNELS 3 Yrotation Xrotation Zrotation
       JOINT LeftElbow
       {
        OFFSET 30.272209 0.000000 0.000000
        CHANNELS 3 Yrotation Xrotation Zrotation
        JOINT LeftWrist
        {
         OFFSET 24.478199 0.000000 0.000000
         CHANNELS 3 Yrotation Xrotation Zrotation
         End Site
         {
          OFFSET 18.090752 0.000000 0.000000
         }
        }
       }
      }
     }
    }
   }
  }
 }
 JOINT RightHip
 {
  OFFSET -7.826875 0.019532 0.001973
  CHANNELS 3 Yrotation Xrotation Zrotation
  JOINT RightKnee
  {
   OFFSET 0.000000 -40.546152 -0.001885
   CHANNELS 3 Yrotation Xrotation Zrotation
   JOINT RightAnkle
   {
    OFFSET 0.000000 -39.417092 -0.003189
    CHANNELS 3 Yrotation Xrotation Zrotation
    JOINT RightToe
    {
     OFFSET 0.000000 -7.579396 17.243563
     CHANNELS 3 Yrotation Xrotation Zrotation
     End Site
     {
      OFFSET 0.000000 -1.500329 6.694466
     }
    }
   }
  }
 }
 JOINT LeftHip
 {
  OFFSET 7.826875 0.019532 0.001973
  CHANNELS 3 Yrotation Xrotation Zrotation
  JOINT LeftKnee
  {
   OFFSET 0.000000 -40.546152 -0.001885
   CHANNELS 3 Yrotation Xrotation Zrotation
   JOINT LeftAnkle
   {
    OFFSET 0.000000 -39.417092 -0.003189
    CHANNELS 3 Yrotation Xrotation Zrotation
    JOINT LeftToe
    {
     OFFSET 0.000000 -7.579396 17.243563
     CHANNELS 3 Yrotation Xrotation Zrotation
     End Site
     {
      OFFSET 0.000000 -1.500329 6.694466
     }
    }
   }
  }
 }
}
MOTION
Frames: 17
Frame Time: 0.008333
24.802703 87.751824 -2.720561 36.426451 -4.293013 2.119193 0.579820 4.912607 3.187180 0.361939 2.813178 1.582252 0.464710 3.514830 1.981195 0.361939 2.813192 1.582261 7.256738 18.261871 -4.872486 9.148989 -5.959326 -7.074203 -14.936795 3.377592 -12.119452 -10.502988 24.523472 65.537926 80.152477 7.706263 37.434689 -25.934744 6.933268 18.442971 -10.413475 0.286353 -0.088440 -1.418983 -2.886806 -87.311880 -7.039217 7.464688 -9.974561 -4.513410 -4.769237 7.912197 7.099552 6.703217 -11.601360 -1.988670 8.274493 1.602891 -3.165036 -8.068945 7.718086 -0.097019 0.653195 -0.057545 9.332665 3.945097 9.259766 13.684127 11.817932 3.297092 3.567700 -7.311145 -10.049306 -0.280884 -0.852214 -0.090664
24.775919 87.757771 -2.832966 36.809257 -4.205441 2.152901 0.671873 4.950882 3.145112 0.409799 2.829095 1.557033 0.524428 3.534550 1.950054 0.409799 2.829110 1.557042 6.970598 18.155865 -4.873019 8.818360 -6.104238 -6.996906 -14.708158 3.096266 -11.990341 -10.565060 24.144411 65.272559 81.130402 8.110041 36.747307 -26.038736 6.898229 18.464622 -10.457259 0.234407 -0.023157 -1.440150 -2.874012 -87.323377 -6.960078 7.293395 -9.875245 -4.713668 -4.935634 8.090621 6.866619 6.644646 -11.674397 -2.103144 8.209218 1.567034 -3.191291 -8.008510 7.780111 -0.100110 0.655774 -0.062880 9.248535 3.579680 9.179559 13.515759 12.042592 3.325359 3.466508 -7.318456 -9.993080 -0.278412 -0.848363 -0.085730
24.748038 87.762326 -2.945352 37.204914 -4.113025 2.181387 0.769191 4.981714 3.108693 0.460150 2.840359 1.535648 0.587269 3.548443 1.923722 0.460151 2.840375 1.535657 6.669959 18.065123 -4.871278 8.471711 -6.232080 -6.913209 -14.488989 2.839501 -11.863391 -10.625301 23.726725 65.050698 82.111114 8.602483 36.040110 -26.160887 6.911066 18.403134 -10.506195 0.193229 0.037642 -1.473961 -2.870351 -87.343877 -6.884303 7.135680 -9.768177 -4.879135 -5.105417 8.255738 6.644233 6.589964 -11.740574 -2.226869 8.135086 1.533909 -3.226543 -7.948263 7.841183 -0.103355 0.660471 -0.067704 9.174955 3.203337 9.101716 13.334777 12.266995 3.356164 3.363411 -7.328642 -9.934900 -0.276048 -0.840185 -0.083156
24.718787 87.765370 -3.057667 37.611766 -4.014959 2.203520 0.868019 5.003282 3.078896 0.512354 2.847702 1.519123 0.652445 3.557426 1.903476 0.512355 2.847718 1.519132 6.356291 17.988231 -4.867817 8.111094 -6.344270 -6.824231 -14.302373 2.614773 -11.757473 -10.663133 23.238734 64.884563 83.086155 9.158465 35.337193 -26.316199 6.977672 18.289287 -10.550248 0.164192 0.088914 -1.520496 -2.882969 -87.370380 -6.809647 6.987308 -9.653870 -4.995288 -5.267909 8.393287 6.432720 6.537393 -11.796479 -2.355850 8.052651 1.499572 -3.273203 -7.888489 7.902349 -0.106720 0.667278 -0.071495 9.107044 2.816463 9.026899 13.137670 12.490800 3.387995 3.266373 -7.341031 -9.875110 -0.274398 -0.827853 -0.082683
24.688481 87.766915 -3.169721 38.028258 -3.914625 2.219894 0.963947 5.018961 3.056563 0.565352 2.854665 1.507724 0.718653 3.565927 1.889648 0.565352 2.854680 1.507733 6.031775 17.917494 -4.864495 7.739694 -6.449145 -6.732747 -14.143348 2.408588 -11.671494 -10.673647 22.675643 64.754360 84.018557 9.721059 34.653466 -26.495219 7.079276 18.164226 -10.579769 0.142008 0.129231 -1.571227 -2.918278 -87.400982 -6.738362 6.847804 -9.540835 -5.048629 -5.410507 8.499518 6.231794 6.489091 -11.841426 -2.490358 7.964129 1.461650 -3.329194 -7.830046 7.964916 -0.110222 0.676041 -0.074606 9.039329 2.424699 8.956197 12.929360 12.712813 3.417903 3.174405 -7.354384 -9.813137 -0.273730 -0.812222 -0.083520
24.658001 87.767097 -3.281640 38.454044 -3.817041 2.233996 1.055637 5.035364 3.041262 0.618436 2.865109 1.500574 0.785014 3.578773 1.881144 0.618433 2.865123 1.500584 5.698569 17.843360 -4.863576 7.360713 -6.557052 -6.641952 -13.987160 2.219594 -11.573091 -10.681354 22.038008 64.615261 84.829818 10.221179 34.009316 -26.631631 7.186764 18.030668 -10.594849 0.119157 0.162253 -1.610689 -2.975754 -87.433120 -6.676273 6.721991 -9.444259 -5.042959 -5.526357 8.585524 6.041094 6.448652 -11.878047 -2.634625 7.873910 1.418393 -3.390961 -7.775238 8.028323 -0.113422 0.687131 -0.075897 8.968590 2.034157 8.887136 12.716999 12.933408 3.445526 3.081970 -7.367515 -9.749096 -0.273910 -0.794854 -0.084602
24.627850 87.766097 -3.393814 38.889254 -3.725050 2.247521 1.145377 5.057552 3.032271 0.671277 2.880309 1.496914 0.851121 3.597561 1.877013 0.671273 2.880324 1.496923 5.359278 17.760314 -4.866039 6.977440 -6.673817 -6.553665 -13.805748 2.043095 -11.419128 -10.724043 21.341535 64.421410 85.474826 10.581842 33.396967 -26.681314 7.273034 17.908219 -10.601671 0.090615 0.192013 -1.628878 -3.047378 -87.463461 -6.632054 6.609168 -9.376575 -4.999244 -5.613446 8.664281 5.858951 6.417284 -11.908078 -2.789301 7.785169 1.368893 -3.456359 -7.725039 8.092347 -0.115860 0.700074 -0.074862 8.891019 1.646613 8.818259 12.504071 13.156784 3.470973 2.988104 -7.381654 -9.683033 -0.274241 -0.776682 -0.085571
24.598239 87.764127 -3.506469 39.334029 -3.640999 2.259420 1.235667 5.086729 3.029965 0.724054 2.899619 1.496717 0.917192 3.621480 1.877228 0.724048 2.899633 1.496727 5.014709 17.669317 -4.872332 6.590962 -6.798166 -6.468619 -13.579407 1.850935 -11.191662 -10.831374 20.620833 64.149157 85.946413 10.746195 32.804016 -26.633211 7.311586 17.840950 -10.608147 0.056117 0.223319 -1.622950 -3.123434 -87.496971 -6.614526 6.508404 -9.338434 -4.939884 -5.678594 8.746874 5.685455 6.398977 -11.932572 -2.951636 7.694485 1.317179 -3.527246 -7.676713 8.157307 -0.117530 0.713704 -0.073333 8.801626 1.264388 8.749056 12.290620 13.384241 3.496358 2.897601 -7.397753 -9.616476 -0.274388 -0.757623 -0.086330
24.569495 87.761413 -3.620036 39.790517 -3.566154 2.269481 1.326700 5.120973 3.033179 0.777502 2.922324 1.499708 0.984143 3.649634 1.881447 0.777495 2.922339 1.499718 4.663787 17.573734 -4.882075 6.200017 -6.926339 -6.386123 -13.312087 1.625127 -10.900309 -11.015010 19.899695 63.808917 86.251704 10.687826 32.242052 -26.487694 7.268744 17.844135 -10.622492 0.014241 0.262973 -1.590932 -3.193388 -87.542832 -6.625018 6.424555 -9.323699 -4.891728 -5.728636 8.838832 5.521274 6.396458 -11.953219 -3.123285 7.600352 1.267126 -3.605559 -7.628388 8.223433 -0.118869 0.727019 -0.072702 8.694977 0.889357 8.676732 12.079363 13.613818 3.525806 2.812784 -7.414549 -9.550829 -0.275883 -0.737922 -0.087133
24.542393 87.758174 -3.735486 40.263618 -3.500275 2.281740 1.414876 5.157607 3.038651 0.830613 2.947757 1.504625 1.050702 3.681192 1.888086 0.830605 2.947772 1.504635 4.307921 17.476242 -4.893680 5.805796 -7.055292 -6.304806 -13.020759 1.371660 -10.576446 -11.259688 19.190788 63.441275 86.406906 10.380977 31.712589 -26.262880 7.141148 17.900641 -10.642498 -0.036897 0.312747 -1.543774 -3.250258 -87.603265 -6.658074 6.354621 -9.323628 -4.878793 -5.762699 8.942833 5.358580 6.408011 -11.975600 -3.302079 7.506067 1.218246 -3.690929 -7.581572 8.292670 -0.120484 0.739803 -0.073272 8.564823 0.521212 8.595383 11.874242 13.845092 3.559956 2.733250 -7.429899 -9.483389 -0.281443 -0.719249 -0.089329
24.517253 87.754550 -3.853449 40.749190 -3.441713 2.298364 1.499388 5.195478 3.046202 0.882431 2.974536 1.511351 1.115665 3.714432 1.896988 0.882422 2.974550 1.511361 3.949410 17.378923 -4.907310 5.410929 -7.182523 -6.225495 -12.723890 1.118605 -10.269195 -11.528716 18.489088 63.109309 86.422429 9.809923 31.204192 -25.970732 6.970892 17.972844 -10.656709 -0.094260 0.364671 -1.508565 -3.296551 -87.671757 -6.710214 6.286047 -9.333019 -4.906977 -5.787099 9.060239 5.194771 6.430316 -12.002215 -3.484365 7.411893 1.168634 -3.780968 -7.536138 8.365119 -0.122780 0.752651 -0.073986 8.415521 0.159719 8.503427 11.677014 14.077038 3.597590 2.656487 -7.443159 -9.413225 -0.290926 -0.702607 -0.092837
24.493446 87.750571 -3.974331 41.237755 -3.385141 2.318050 1.583277 5.233399 3.059273 0.933277 3.000336 1.521258 1.179437 3.746441 1.909865 0.933268 3.000350 1.521268 3.587850 17.283794 -4.925372 5.015590 -7.305659 -6.150823 -12.445769 0.896663 -10.019571 -11.779547 17.772741 62.872661 86.307396 8.992833 30.711247 -25.622556 6.790571 18.025320 -10.657152 -0.152703 0.407137 -1.503481 -3.338036 -87.741953 -6.779121 6.212975 -9.351125 -4.967543 -5.815849 9.185400 5.034824 6.455749 -12.031656 -3.670039 7.317905 1.117823 -3.872716 -7.491117 8.437835 -0.125244 0.766083 -0.072992 8.260653 -0.199295 8.403606 11.487870 14.308132 3.638000 2.576651 -7.455041 -9.341687 -0.301096 -0.687516 -0.096295
24.470310 87.746231 -4.098283 41.726564 -3.326030 2.339352 1.666962 5.269264 3.079998 0.982698 3.023424 1.534678 1.241446 3.775054 1.927121 0.982689 3.023438 1.534687 3.222208 17.191574 -4.946545 4.618279 -7.424034 -6.079096 -12.203429 0.710445 -9.839775 -11.985298 17.025308 62.762104 86.072278 7.981310 30.239308 -25.232854 6.598806 18.033835 -10.640739 -0.205869 0.436399 -1.524046 -3.378658 -87.812664 -6.863270 6.142155 -9.379185 -5.049299 -5.854847 9.314909 4.879646 6.477902 -12.063864 -3.858013 7.225635 1.067933 -3.964716 -7.446639 8.509211 -0.127210 0.779667 -0.070475 8.110922 -0.561244 8.299456 11.303318 14.538151 3.678747 2.487803 -7.465750 -9.269490 -0.307994 -0.673604 -0.097947
24.447997 87.741583 -4.224403 42.213981 -3.267765 2.361230 1.749186 5.303277 3.106982 1.030627 3.044785 1.550806 1.301607 3.801502 1.947751 1.030618 3.044798 1.550814 2.851961 17.100485 -4.965743 4.217111 -7.539901 -6.004570 -11.986525 0.532944 -9.711835 -12.150394 16.253574 62.763303 85.732685 6.844875 29.800735 -24.793218 6.385338 17.991790 -10.608064 -0.248656 0.455704 -1.555067 -3.419902 -87.880364 -6.961586 6.085353 -9.423280 -5.145005 -5.904697 9.451553 4.729632 6.498865 -12.098777 -4.045148 7.137876 1.021886 -4.058086 -7.403815 8.579226 -0.128586 0.792271 -0.067858 7.976500 -0.922531 8.194719 11.117616 14.765415 3.717493 2.385997 -7.474412 -9.198009 -0.309974 -0.660897 -0.096069
24.426636 87.736674 -4.351592 42.694694 -3.214509 2.382229 1.833113 5.338239 3.138710 1.079650 3.067052 1.569037 1.363159 3.829069 1.971030 1.079641 3.067065 1.569046 2.474042 17.006536 -4.980090 3.808020 -7.657866 -5.923324 -11.767491 0.324769 -9.588293 -12.309736 15.483485 62.810309 85.307347 5.637092 29.409790 -24.263405 6.150094 17.893527 -10.567290 -0.285882 0.469625 -1.582004 -3.461076 -87.938416 -7.074865 6.048877 -9.493388 -5.248133 -5.963044 9.593732 4.591288 6.520879 -12.133847 -4.226449 7.059055 0.980535 -4.158781 -7.364226 8.647232 -0.129124 0.802964 -0.064921 7.864630 -1.276957 8.092615 10.929827 14.987282 3.753237 2.270264 -7.480404 -9.128054 -0.306944 -0.648807 -0.090455
24.405946 87.731514 -4.479287 43.163655 -3.166586 2.401090 1.925183 5.379191 3.173676 1.132599 3.092547 1.588462 1.429648 3.860644 1.995854 1.132588 3.092562 1.588473 2.085261 16.904438 -4.988963 3.387425 -7.783727 -5.833944 -11.532193 0.072934 -9.416293 -12.494012 14.716443 62.828263 84.813924 4.369651 29.074365 -23.637407 5.885302 17.736181 -10.530942 -0.331279 0.487432 -1.588865 -3.501117 -87.986509 -7.205927 6.037230 -9.594948 -5.350280 -6.023674 9.737956 4.471077 6.542881 -12.165546 -4.397760 6.991629 0.940768 -4.270284 -7.328657 8.712658 -0.128717 0.811380 -0.059977 7.772340 -1.622373 7.994814 10.741334 15.204444 3.784427 2.147748 -7.485005 -9.057957 -0.299807 -0.636441 -0.083177
24.386013 87.726137 -4.607402 43.623584 -3.124019 2.419464 2.026335 5.427852 3.207637 1.190023 3.122378 1.607514 1.501753 3.897615 2.020272 1.190010 3.122395 1.607526 1.684880 16.793526 -4.992135 2.954537 -7.918046 -5.736131 -11.285526 -0.210115 -9.177913 -12.706769 13.948934 62.784304 84.275662 3.042653 28.780035 -22.914466 5.586530 17.524592 -10.509235 -0.392140 0.521135 -1.565630 -3.537371 -88.030140 -7.353763 6.051093 -9.724269 -5.450028 -6.081384 9.880543 4.364173 6.565558 -12.195456 -4.558740 6.934473 0.900496 -4.389063 -7.297656 8.775107 -0.127816 0.817912 -0.052189 7.687018 -1.956599 7.897547 10.552111 15.415464 3.811090 2.029680 -7.487262 -8.985027 -0.291811 -0.623393 -0.077256
